<?xml version="1.0" encoding="UTF-8" standalone="no"?><!DOCTYPE svg PUBLIC "-//W3C//DTD SVG 1.1//EN" "http://www.w3.org/Graphics/SVG/1.1/DTD/svg11.dtd"><svg width="100%" height="100%" viewBox="0 0 734 518" version="1.1" xmlns="http://www.w3.org/2000/svg" xmlns:xlink="http://www.w3.org/1999/xlink" xml:space="preserve" xmlns:serif="http://www.serif.com/" style="fill-rule:evenodd;clip-rule:evenodd;stroke-linejoin:round;stroke-miterlimit:2;"><rect id="Artboard1" x="0" y="0" width="734" height="518" style="fill:none;"/><path id="Mail-Icon" serif:id="Mail Icon" d="M653.128,517.731l-572.254,0c-22.574,0 -40.874,-18.296 -40.874,-40.861l-0,-436.009c-0,-22.58 18.3,-40.861 40.874,-40.861l572.254,0c22.572,0 40.872,18.281 40.872,40.861l0,436.009c0,22.565 -18.3,40.861 -40.872,40.861Zm-40.877,-81.752l0,-315.413l-225.327,225.623c-5.529,5.537 -12.819,8.197 -20.064,8.03c-7.248,0.167 -14.54,-2.493 -20.069,-8.03l-225.042,-225.343l-0,315.133l490.502,0Zm-39.225,-354.249l-412.336,-0l206.168,206.442l206.168,-206.442Z" style="fill:#fff;"/></svg>