<?xml version="1.0" encoding="UTF-8" standalone="no"?><!DOCTYPE svg PUBLIC "-//W3C//DTD SVG 1.1//EN" "http://www.w3.org/Graphics/SVG/1.1/DTD/svg11.dtd"><svg width="100%" height="100%" viewBox="0 0 185 185" version="1.1" xmlns="http://www.w3.org/2000/svg" xmlns:xlink="http://www.w3.org/1999/xlink" xml:space="preserve" xmlns:serif="http://www.serif.com/" style="fill-rule:evenodd;clip-rule:evenodd;stroke-linejoin:round;stroke-miterlimit:2;"><circle cx="91.789" cy="92.31" r="88.583" style="fill:#666;"/><path id="Mail-Icon" serif:id="Mail Icon" d="M130.147,126.201l-76.715,0c-3.026,0 -5.479,-2.453 -5.479,-5.478l0,-58.449c0,-3.027 2.453,-5.478 5.479,-5.478l76.715,0c3.025,0 5.479,2.451 5.479,5.478l0,58.449c0,3.025 -2.454,5.478 -5.479,5.478Zm-5.48,-10.959l0,-42.283l-30.207,30.246c-0.741,0.742 -1.718,1.099 -2.69,1.076c-0.971,0.023 -1.949,-0.334 -2.69,-1.076l-30.168,-30.209l0,42.246l65.755,0Zm-5.259,-47.49l-55.276,0l27.638,27.675l27.638,-27.675Z" style="fill:#fff;"/></svg>