<?xml version="1.0" encoding="UTF-8" standalone="no"?><!DOCTYPE svg PUBLIC "-//W3C//DTD SVG 1.1//EN" "http://www.w3.org/Graphics/SVG/1.1/DTD/svg11.dtd"><svg width="100%" height="100%" viewBox="0 0 185 185" version="1.1" xmlns="http://www.w3.org/2000/svg" xmlns:xlink="http://www.w3.org/1999/xlink" xml:space="preserve" xmlns:serif="http://www.serif.com/" style="fill-rule:evenodd;clip-rule:evenodd;stroke-linejoin:round;stroke-miterlimit:2;"><circle cx="92.099" cy="92.31" r="88.583" style="fill:#666;"/><path id="Twitter-Icon" serif:id="Twitter Icon" d="M134.371,69.245c0.041,0.96 0.055,1.923 0.055,2.895c0,29.585 -21.934,63.701 -62.047,63.701c-12.321,0 -23.776,-3.698 -33.43,-10.064c1.706,0.212 3.438,0.311 5.199,0.311c10.217,0 19.623,-3.572 27.09,-9.585c-9.544,-0.167 -17.602,-6.647 -20.38,-15.541c1.334,0.266 2.709,0.408 4.112,0.408c1.98,0 3.905,-0.28 5.748,-0.787c-9.983,-2.062 -17.505,-11.111 -17.505,-21.951l0,-0.281c2.942,1.664 6.311,2.68 9.887,2.794c-5.858,-4.024 -9.709,-10.869 -9.709,-18.633c0,-4.107 1.073,-7.946 2.957,-11.262c10.753,13.55 26.83,22.455 44.953,23.403c-0.372,-1.639 -0.563,-3.362 -0.563,-5.11c0,-12.365 9.763,-22.387 21.81,-22.387c6.27,0 11.936,2.723 15.91,7.071c4.977,-1.003 9.64,-2.864 13.861,-5.433c-1.637,5.221 -5.088,9.611 -9.599,12.378c4.414,-0.523 8.623,-1.737 12.528,-3.516c-2.929,4.489 -6.615,8.427 -10.877,11.589Z" style="fill:#fff;"/></svg>