<?xml version="1.0" encoding="UTF-8" standalone="no"?><!DOCTYPE svg PUBLIC "-//W3C//DTD SVG 1.1//EN" "http://www.w3.org/Graphics/SVG/1.1/DTD/svg11.dtd"><svg width="100%" height="100%" viewBox="0 0 734 518" version="1.1" xmlns="http://www.w3.org/2000/svg" xmlns:xlink="http://www.w3.org/1999/xlink" xml:space="preserve" xmlns:serif="http://www.serif.com/" style="fill-rule:evenodd;clip-rule:evenodd;stroke-linejoin:round;stroke-miterlimit:2;"><rect id="Artboard1" x="0" y="0" width="734" height="518" style="fill:none;"/><path id="Twitter-Icon" serif:id="Twitter Icon" d="M613.91,129.021c0.236,5.605 0.319,11.231 0.319,16.908c-0,172.805 -128.114,372.071 -362.41,372.071c-71.963,-0 -138.874,-21.602 -195.261,-58.784c9.963,1.242 20.08,1.816 30.365,1.816c59.678,0 114.616,-20.862 158.23,-55.985c-55.744,-0.976 -102.809,-38.825 -119.036,-90.769c7.792,1.55 15.823,2.382 24.017,2.382c11.567,0 22.809,-1.636 33.573,-4.6c-58.308,-12.042 -102.245,-64.898 -102.245,-128.21l0,-1.643c17.187,9.717 36.865,15.652 57.749,16.319c-34.214,-23.503 -56.706,-63.484 -56.706,-108.833c-0,-23.991 6.263,-46.411 17.268,-65.781c62.81,79.144 156.711,131.16 262.569,136.693c-2.173,-9.573 -3.291,-19.635 -3.291,-29.847c-0,-72.218 57.025,-130.758 127.39,-130.758c36.622,0 69.716,15.903 92.931,41.301c29.071,-5.856 56.303,-16.728 80.962,-31.735c-9.564,30.494 -29.72,56.136 -56.068,72.298c25.783,-3.051 50.364,-10.141 73.176,-20.533c-17.108,26.216 -38.639,49.217 -63.532,67.69Z" style="fill:#fff;"/></svg>