<?xml version="1.0" encoding="UTF-8" standalone="no"?><!DOCTYPE svg PUBLIC "-//W3C//DTD SVG 1.1//EN" "http://www.w3.org/Graphics/SVG/1.1/DTD/svg11.dtd"><svg width="100%" height="100%" viewBox="0 0 734 518" version="1.1" xmlns="http://www.w3.org/2000/svg" xmlns:xlink="http://www.w3.org/1999/xlink" xml:space="preserve" xmlns:serif="http://www.serif.com/" style="fill-rule:evenodd;clip-rule:evenodd;stroke-linejoin:round;stroke-miterlimit:2;"><rect id="Artboard1" x="0" y="0" width="734" height="518" style="fill:none;"/><g><path d="M292.333,367.371l0,-218.071l191.667,109.037l-191.667,109.034Zm426.342,-286.692c-8.433,-31.754 -33.283,-56.767 -64.833,-65.254c-57.188,-15.425 -286.509,-15.425 -286.509,-15.425c0,0 -229.32,0 -286.512,15.425c-31.55,8.487 -56.4,33.5 -64.833,65.254c-15.321,57.563 -15.321,177.654 -15.321,177.654c-0,0 -0,120.096 15.321,177.654c8.433,31.759 33.283,56.767 64.833,65.259c57.192,15.421 286.512,15.421 286.512,15.421c0,-0 229.321,-0 286.509,-15.421c31.55,-8.492 56.4,-33.5 64.833,-65.259c15.325,-57.558 15.325,-177.654 15.325,-177.654c-0,0 -0,-120.091 -15.325,-177.654Z" style="fill:#fff;fill-rule:nonzero;"/></g></svg>